<?xml version="1.0" standalone="no"?>
<!DOCTYPE svg PUBLIC "-//W3C//DTD SVG 20010904//EN"
 "http://www.w3.org/TR/2001/REC-SVG-20010904/DTD/svg10.dtd">
<svg version="1.0" xmlns="http://www.w3.org/2000/svg"
 width="32.000000pt" height="32.000000pt" viewBox="0 0 32.000000 32.000000"
 preserveAspectRatio="xMidYMid meet">
<metadata>
Created by potrace 1.16, written by Peter Selinger 2001-2019
</metadata>
<g transform="translate(0.000000,32.000000) scale(0.100000,-0.100000)"
fill="#000000" stroke="none">
<path d="M0 292 c0 -16 8 -32 19 -39 11 -7 22 -27 26 -45 4 -18 10 -37 13 -43
3 -5 5 -26 4 -45 -2 -24 0 -31 6 -21 6 8 15 10 23 6 8 -5 11 -5 7 0 -5 5 1 15
13 23 11 8 18 20 15 28 -3 8 -3 28 0 44 6 26 10 29 33 23 14 -3 27 -6 28 -7 1
-1 4 -20 7 -42 4 -36 1 -43 -19 -54 -13 -7 -30 -10 -38 -7 -9 3 -19 -4 -26
-21 -10 -21 -14 -23 -22 -11 -7 12 -9 11 -9 -2 0 -9 -3 -31 -6 -48 l-7 -31
113 0 113 0 -6 28 c-3 15 -8 36 -12 47 -3 11 3 2 14 -20 l19 -40 7 27 c4 15 4
47 1 70 -3 24 -6 48 -7 53 0 6 2 43 6 83 l8 72 -162 0 -161 0 0 -28z"/>
</g>
</svg>
